<svg version="1.1" xmlns="http://www.w3.org/2000/svg" xmlns:xlink="http://www.w3.org/1999/xlink" width="119.000000pt" height="90.000000pt" viewBox="0,0,256,193.60938"><g fill="#ffffff" fill-rule="nonzero" stroke="none" stroke-width="1" stroke-linecap="butt" stroke-linejoin="miter" stroke-miterlimit="10" stroke-dasharray="" stroke-dashoffset="0" font-family="none" font-weight="none" font-size="none" text-anchor="none" style="mix-blend-mode: normal"><g transform="translate(0.21568,3.22486) scale(2.15126,2.15126)"><g transform="translate(0,90) scale(0.1,-0.1)"><path d="M510,795c-9,-11 -33,-15 -86,-15c-67,0 -77,-3 -103,-27c-22,-21 -32,-41 -37,-75c-6,-48 -6,-48 23,-48c26,0 30,4 39,43l9,42l82,3c56,2 85,7 93,17c8,10 31,15 65,15c34,0 57,-5 65,-15c8,-10 37,-15 93,-17l82,-3l9,-42c9,-39 13,-43 39,-43c29,0 29,0 23,48c-5,34 -15,54 -37,75c-26,24 -36,27 -103,27c-53,0 -77,4 -86,15c-9,11 -33,15 -85,15c-52,0 -76,-4 -85,-15z"></path><path d="M217,563c-14,-13 -7,-102 8,-111c11,-5 23,-53 40,-151c16,-93 30,-150 41,-162c16,-18 36,-19 289,-19c253,0 273,1 289,19c11,12 25,69 41,161c17,98 29,146 40,154c12,9 15,25 13,61l-3,50l-376,3c-206,1 -378,-1 -382,-5zM470,401c5,-11 10,-50 10,-86c0,-70 -12,-105 -35,-105c-23,0 -35,35 -35,105c0,70 12,105 35,105c8,0 19,-9 25,-19zM620,401c5,-11 10,-50 10,-86c0,-70 -12,-105 -35,-105c-23,0 -35,35 -35,105c0,70 12,105 35,105c8,0 19,-9 25,-19zM770,401c5,-11 10,-50 10,-86c0,-70 -12,-105 -35,-105c-23,0 -35,35 -35,105c0,70 12,105 35,105c8,0 19,-9 25,-19z"></path></g></g></g></svg>